# xmcd
#
# Track frame offsets:
# 150
# 23272
# 46715
# 65647
# 91340
# 114402
# 135265
# 153122
# 176405
# 193327
# 215957
# 235515
#
# Disc length: 3466 seconds
#
#
# Revision: 1
# Processed by: cddbd v1.5.1PL0 Copyright (c) Steve Scherf et al.
# Submitted via: FreeRIP 2.60 
#
DISCID=920d880c
DTITLE=CASIOPEA - PLACES
DYEAR=2003
DGENRE=Instrumental
TTITLE0=Right On The Orbit
TTITLE1=Windy City
TTITLE2=Rare One In N.Y
TTITLE3=Escape Journey
TTITLE4=Tropicool
TTITLE5=Teatro Saudade
TTITLE6=Sprinter
TTITLE7=It's Not Only One Time
TTITLE8=My Native Place
TTITLE9=Saridari-dahlidali
TTITLE10=Gazebo
TTITLE11=Tokyo Sunset
EXTD=YEAR: 2003
EXTT0=
EXTT1=
EXTT2=
EXTT3=
EXTT4=
EXTT5=
EXTT6=
EXTT7=
EXTT8=
EXTT9=
EXTT10=
EXTT11=
PLAYORDER=
